#!OML:ASF X:\für Bonn\!DataBase\2005_08_12_Daniel\c3d\Daniel.ASF
:FULLY-SPECIFIED
:DEGREES
261
root 14.0673 1.59575 0.612211 -600.45 -87.0848 -207.575
lowerback 55.2194 -3.9445 7.92667
upperback 15.8968 -4.54667 -2.86451
thorax -3.61123 -3.47242 -4.71619
lowerneck 6.15482 7.98839 -2.89828
upperneck 2.03823 10.2406 -7.65585
head -0.113856 5.0613 -2.08991
rclavicle -3.89618e-014 -7.67309e-014
rhumerus -57.0416 21.6594 -95.8851
rradius 52.9152
rwrist -2.26264
rhand -44.6665 -332.157
rfingers 7.12502
rthumb -17.4627 -361.393
lclavicle -3.89618e-014 -7.67309e-014
lhumerus -406.566 0.865919 -281.738
lradius 64.863
lwrist 14.197
lhand -31.0254 349.326
lfingers 7.12502
lthumb -4.30771 379.262
rfemur 141.153 -170.355 194.815
rtibia 75.0484
rfoot 33.1882 -7.16662
rtoes 12.3335
lfemur -48.4123 18.3676 -16.1306
ltibia 92.634
lfoot 26.3471 8.15688
ltoes 9.96953
262
root 14.0739 1.58867 0.610724 -598.594 -86.9491 -209.785
lowerback 54.8221 -3.89286 7.8895
upperback 15.9796 -4.52416 -2.85838
thorax -3.49114 -3.45695 -4.71958
lowerneck 6.73345 8.1077 -2.80053
upperneck 2.1131 10.3683 -7.70504
head -0.175464 5.13165 -2.15061
rclavicle 3.77691e-015 2.90226e-014
rhumerus -55.3231 21.2489 -95.1822
rradius 52.5694
rwrist -3.41198
rhand -43.2565 -333.088
rfingers 7.12502
rthumb -16.1053 -362.439
lclavicle 3.77691e-015 2.90226e-014
lhumerus -405.608 0.313962 -281.929
lradius 64.7547
lwrist 13.7071
lhand -29.985 349.422
lfingers 7.12502
lthumb -3.30299 379.376
rfemur 141.61 -170.609 194.888
rtibia 74.7898
rfoot 33.2562 -6.91852
rtoes 12.1728
lfemur -47.6512 18.1057 -15.6893
ltibia 91.9491
lfoot 26.0791 7.91293
ltoes 9.92308
263
root 14.0816 1.58249 0.60996 -596.65 -86.8364 -212.074
lowerback 54.4168 -3.84325 7.83536
upperback 16.046 -4.50887 -2.85763
thorax -3.38886 -3.44389 -4.71753
lowerneck 7.30005 8.22158 -2.78074
upperneck 2.17949 10.4832 -7.68723
head -0.245598 5.19467 -2.17764
rclavicle -1.99779e-014 -7.27552e-014
rhumerus -53.5985 20.7037 -94.4977
rradius 52.1114
rwrist -4.43
rhand -41.8751 -333.948
rfingers 7.12502
rthumb -14.7748 -363.401
lclavicle -1.99779e-014 -7.27552e-014
lhumerus -404.652 -0.221754 -282.106
lradius 64.6058
lwrist 13.0441
lhand -29.1488 349.474
lfingers 7.12502
lthumb -2.49546 379.439
rfemur 142.072 -170.864 194.925
rtibia 74.5265
rfoot 33.3094 -6.74746
rtoes 12.1215
lfemur -46.9136 17.8041 -15.2964
ltibia 91.2675
lfoot 25.796 7.69445
ltoes 9.81001
264
root 14.0893 1.57632 0.608669 -594.865 -86.7018 -214.223
lowerback 54.0255 -3.78984 7.78765
upperback 16.1179 -4.48649 -2.85502
thorax -3.27888 -3.42813 -4.71927
lowerneck 7.77767 8.31793 -2.7962
upperneck 2.30163 10.5815 -7.62242
head -0.287974 5.24486 -2.17784
rclavicle -1.33186e-014 -6.67916e-014
rhumerus -51.8885 20.0604 -93.8394
rradius 51.6089
rwrist -5.29951
rhand -40.5782 -334.764
rfingers 7.12502
rthumb -13.5251 -364.304
lclavicle -1.33186e-014 -6.67916e-014
lhumerus -403.667 -0.772932 -282.292
lradius 64.4089
lwrist 12.1952
lhand -28.4298 349.64
lfingers 7.12502
lthumb -1.80105 379.612
rfemur 142.547 -171.123 194.979
rtibia 74.2644
rfoot 33.3714 -6.53203
rtoes 12.0696
lfemur -46.1554 17.5154 -14.8818
ltibia 90.59
lfoot 25.5869 7.3862
ltoes 9.62128
265
root 14.0971 1.57 0.60852 -593.334 -86.5833 -216.118
lowerback 53.6311 -3.74619 7.75232
upperback 16.1773 -4.46462 -2.85127
thorax -3.18077 -3.4106 -4.72452
lowerneck 8.2345 8.3995 -2.82376
upperneck 2.4779 10.6632 -7.52978
head -0.312224 5.28354 -2.16442
rclavicle 2.44505e-014 9.54166e-014
rhumerus -50.2112 19.3216 -93.2071
rradius 51.0009
rwrist -6.08525
rhand -39.3732 -335.381
rfingers 7.12502
rthumb -12.3635 -364.995
lclavicle 2.44505e-014 9.54166e-014
lhumerus -402.698 -1.33427 -282.445
lradius 64.182
lwrist 11.3238
lhand -27.8707 349.752
lfingers 7.12502
lthumb -1.26105 379.728
rfemur 143.036 -171.362 195.02
rtibia 73.9954
rfoot 33.426 -6.26204
rtoes 11.8866
lfemur -45.4068 17.1954 -14.4981
ltibia 89.9191
lfoot 25.3491 6.99619
ltoes 9.1591
266
root 14.1048 1.56394 0.607897 -591.721 -86.4693 -218.117
lowerback 53.2551 -3.69537 7.68871
upperback 16.2421 -4.45018 -2.84079
thorax -3.07696 -3.40026 -4.70656
lowerneck 8.59419 8.47473 -2.93197
upperneck 2.69147 10.7366 -7.39625
head -0.314827 5.31322 -2.1186
rclavicle 1.07344e-014 8.34896e-014
rhumerus -48.4891 18.5857 -92.632
rradius 50.2496
rwrist -6.78647
rhand -38.294 -335.829
rfingers 7.12502
rthumb -11.3228 -365.504
lclavicle 1.07344e-014 8.34896e-014
lhumerus -401.689 -1.82299 -282.596
lradius 63.8779
lwrist 10.3399
lhand -27.3523 349.896
lfingers 7.12502
lthumb -0.760383 379.874
rfemur 143.539 -171.593 195.043
rtibia 73.7351
rfoot 33.4927 -6.04085
rtoes 11.7426
lfemur -44.6315 16.8595 -14.13
ltibia 89.2535
lfoot 25.1552 6.54694
ltoes 8.57842
267
root 14.1115 1.55833 0.607836 -590.316 -86.3398 -219.885
lowerback 52.8711 -3.65309 7.64075
upperback 16.2824 -4.43246 -2.83836
thorax -2.99876 -3.38493 -4.70441
lowerneck 8.94632 8.54058 -2.99057
upperneck 2.93219 10.8035 -7.28332
head -0.303972 5.33866 -2.08608
rclavicle 4.35338e-014 1.07344e-014
rhumerus -46.8321 17.7747 -92.1431
rradius 49.4449
rwrist -7.36121
rhand -37.3798 -336.194
rfingers 7.12502
rthumb -10.4411 -365.915
lclavicle 4.35338e-014 1.07344e-014
lhumerus -400.722 -2.32609 -282.751
lradius 63.4798
lwrist 9.39839
lhand -26.846 349.962
lfingers 7.12502
lthumb -0.27132 379.942
rfemur 144.021 -171.833 195.092
rtibia 73.4726
rfoot 33.5958 -5.78162
rtoes 11.5836
lfemur -43.9013 16.5378 -13.7595
ltibia 88.6157
lfoot 24.9854 6.03621
ltoes 7.91788
268
root 14.1184 1.55212 0.608944 -589.112 -86.2296 -221.465
lowerback 52.4758 -3.61931 7.60906
upperback 16.3428 -4.4194 -2.83674
thorax -2.89581 -3.37119 -4.71037
lowerneck 9.24734 8.59888 -3.04664
upperneck 3.19217 10.865 -7.15423
head -0.279264 5.35971 -2.04546
rclavicle 1.96797e-014 5.96354e-015
rhumerus -45.2435 16.9329 -91.7078
rradius 48.645
rwrist -7.84844
rhand -36.6436 -336.298
rfingers 7.12502
rthumb -9.73076 -366.053
lclavicle 1.96797e-014 5.96354e-015
lhumerus -399.71 -2.83435 -282.875
lradius 63.0129
lwrist 8.55189
lhand -26.396 349.955
lfingers 7.12502
lthumb 0.163293 379.934
rfemur 144.517 -172.037 195.124
rtibia 73.2124
rfoot 33.7379 -5.42282
rtoes 11.424
lfemur -43.1728 16.1756 -13.4115
ltibia 87.993
lfoot 24.8046 5.57592
ltoes 7.1128
269
root 14.1257 1.54646 0.609496 -587.948 -86.0932 -223.002
lowerback 52.0686 -3.57611 7.56626
upperback 16.4009 -4.40001 -2.82353
thorax -2.79094 -3.35567 -4.70174
lowerneck 9.51134 8.65778 -3.14306
upperneck 3.51706 10.9269 -7.02735
head -0.229519 5.37618 -1.9951
rclavicle -2.38542e-015 2.34566e-014
rhumerus -43.725 16.1271 -91.3459
rradius 47.7833
rwrist -8.25029
rhand -36.0696 -336.227
rfingers 7.12502
rthumb -9.17701 -366.008
lclavicle -2.38542e-015 2.34566e-014
lhumerus -398.735 -3.30749 -282.979
lradius 62.5346
lwrist 7.78533
lhand -25.9043 349.941
lfingers 7.12502
lthumb 0.638153 379.92
rfemur 145.01 -172.294 195.176
rtibia 72.9527
rfoot 33.8693 -5.18579
rtoes 11.488
lfemur -42.4344 15.8249 -13.053
ltibia 87.3734
lfoot 24.6325 5.11835
ltoes 6.33014
270
root 14.1311 1.54042 0.610786 -586.821 -85.972 -224.516
lowerback 51.6635 -3.53733 7.5119
upperback 16.4566 -4.39131 -2.81503
thorax -2.68899 -3.34577 -4.6885
lowerneck 9.70291 8.71382 -3.26942
upperneck 3.91891 10.9904 -6.85208
head -0.14741 5.38793 -1.9185
rclavicle -2.36554e-014 -1.35174e-014
rhumerus -42.2531 15.4296 -91.0891
rradius 46.838
rwrist -8.58447
rhand -35.7142 -336.042
rfingers 7.12502
rthumb -8.83402 -365.837
lclavicle -2.36554e-014 -1.35174e-014
lhumerus -397.781 -3.76819 -283.079
lradius 62.0187
lwrist 7.11269
lhand -25.3936 349.863
lfingers 7.12502
lthumb 1.1314 379.84
rfemur 145.512 -172.516 195.202
rtibia 72.6992
rfoot 34.0275 -4.90148
rtoes 11.4943
lfemur -41.704 15.4514 -12.7096
ltibia 86.7786
lfoot 24.4529 4.769
ltoes 5.69227
271
root 14.1367 1.53432 0.612812 -585.959 -85.8595 -225.752
lowerback 51.2347 -3.51801 7.48914
upperback 16.5097 -4.38957 -2.82404
thorax -2.58784 -3.33471 -4.70644
lowerneck 10.011 8.76807 -3.29839
upperneck 4.2221 11.0467 -6.74172
head -0.107511 5.40377 -1.8875
rclavicle -3.16068e-014 -9.85972e-014
rhumerus -40.8691 14.7616 -90.9191
rradius 45.895
rwrist -8.75726
rhand -35.5506 -335.773
rfingers 7.12502
rthumb -8.67609 -365.574
lclavicle -3.16068e-014 -9.85972e-014
lhumerus -396.868 -4.20979 -283.183
lradius 61.5144
lwrist 6.5261
lhand -24.7962 349.773
lfingers 7.12502
lthumb 1.70843 379.746
rfemur 146.007 -172.76 195.229
rtibia 72.4462
rfoot 34.1692 -4.78851
rtoes 11.7503
lfemur -40.9852 15.053 -12.3782
ltibia 86.1849
lfoot 24.2995 4.47469
ltoes 5.19405
